# MagicaVoxel @ ephtracy

# material
mtllib Player Model 2.mtl
usemtl palette

# normals
vn -1 0 0
vn 1 0 0
vn 0 0 1
vn 0 0 -1
vn 0 -1 0
vn 0 1 0

# texcoords
vt 0.0644531 0.5
vt 0.208984 0.5
vt 0.306641 0.5
vt 0.845703 0.5
vt 0.900391 0.5
vt 0.935547 0.5
vt 0.994141 0.5

# verts
v -9.5 15 1
v -9.5 15 -1
v -9.5 17 1
v -9.5 17 -1
v -4.5 20 2
v -4.5 20 -2
v -4.5 22 2
v -4.5 22 -2
v -3.5 20 3
v -3.5 20 2
v -3.5 20 -2
v -3.5 20 -3
v -3.5 22 3
v -3.5 22 2
v -3.5 22 -2
v -3.5 22 -3
v -2.5 0 3
v -2.5 0 -1
v -2.5 2 3
v -2.5 2 1
v -2.5 3 1
v -2.5 3 -1
v -2.5 5 1
v -2.5 5 -1
v -2.5 9 1
v -2.5 9 -1
v -2.5 10 1
v -2.5 10 -1
v -2.5 14 1
v -2.5 14 -0
v -2.5 15 1
v -2.5 15 -0
v -2.5 15 -1
v -2.5 20 4
v -2.5 20 3
v -2.5 20 -3
v -2.5 20 -4
v -2.5 21 1
v -2.5 21 -1
v -2.5 22 4
v -2.5 22 3
v -2.5 22 1
v -2.5 22 -1
v -2.5 22 -3
v -2.5 22 -4
v -1.5 9 1
v -1.5 9 -1
v -1.5 10 1
v -1.5 10 -1
v -1.5 17 1
v -1.5 17 -1
v -1.5 20 1
v -1.5 20 -1
v -1.5 21 2
v -1.5 21 1
v -1.5 21 -1
v -1.5 21 -2
v -1.5 22 2
v -1.5 22 1
v -1.5 22 -1
v -1.5 22 -2
v -1.5 23 1
v -1.5 23 -1
v 0.5 0 3
v 0.5 0 -1
v 0.5 2 3
v 0.5 2 1
v 0.5 3 1
v 0.5 3 -1
v 0.5 5 1
v 0.5 5 -1
v 0.5 7 1
v 0.5 7 -1
v 2.5 21 3
v 2.5 21 2
v 2.5 21 -2
v 2.5 21 -3
v 2.5 22 3
v 2.5 22 2
v 2.5 22 -2
v 2.5 22 -3
v 3.5 21 2
v 3.5 21 -2
v 3.5 22 2
v 3.5 22 -2
v -3.5 21 2
v -3.5 21 -2
v -3.5 22 2
v -3.5 22 -2
v -2.5 21 3
v -2.5 21 2
v -2.5 21 -2
v -2.5 21 -3
v -2.5 22 3
v -2.5 22 2
v -2.5 22 -2
v -2.5 22 -3
v -0.5 0 3
v -0.5 0 -1
v -0.5 2 3
v -0.5 2 1
v -0.5 3 1
v -0.5 3 -1
v -0.5 5 1
v -0.5 5 -1
v -0.5 7 1
v -0.5 7 -1
v 1.5 9 1
v 1.5 9 -1
v 1.5 10 1
v 1.5 10 -1
v 1.5 17 1
v 1.5 17 -1
v 1.5 20 1
v 1.5 20 -1
v 1.5 21 2
v 1.5 21 1
v 1.5 21 -1
v 1.5 21 -2
v 1.5 22 2
v 1.5 22 1
v 1.5 22 -1
v 1.5 22 -2
v 1.5 23 1
v 1.5 23 -1
v 2.5 0 3
v 2.5 0 -1
v 2.5 2 3
v 2.5 2 1
v 2.5 3 1
v 2.5 3 -1
v 2.5 5 1
v 2.5 5 -1
v 2.5 9 1
v 2.5 9 -1
v 2.5 10 1
v 2.5 10 -1
v 2.5 14 1
v 2.5 14 -0
v 2.5 15 1
v 2.5 15 -0
v 2.5 15 -1
v 2.5 20 4
v 2.5 20 3
v 2.5 20 -3
v 2.5 20 -4
v 2.5 21 1
v 2.5 21 -1
v 2.5 22 4
v 2.5 22 3
v 2.5 22 1
v 2.5 22 -1
v 2.5 22 -3
v 2.5 22 -4
v 3.5 20 3
v 3.5 20 2
v 3.5 20 -2
v 3.5 20 -3
v 3.5 22 3
v 3.5 22 2
v 3.5 22 -2
v 3.5 22 -3
v 4.5 20 2
v 4.5 20 -2
v 4.5 22 2
v 4.5 22 -2
v 9.5 15 1
v 9.5 15 -1
v 9.5 17 1
v 9.5 17 -1
v -2.5 20 4
v -2.5 22 4
v 2.5 20 4
v 2.5 22 4
v -3.5 20 3
v -3.5 22 3
v -2.5 0 3
v -2.5 2 3
v -2.5 20 3
v -2.5 22 3
v -0.5 0 3
v -0.5 2 3
v 0.5 0 3
v 0.5 2 3
v 2.5 0 3
v 2.5 2 3
v 2.5 20 3
v 2.5 22 3
v 3.5 20 3
v 3.5 22 3
v -4.5 20 2
v -4.5 22 2
v -3.5 20 2
v -3.5 22 2
v -1.5 21 2
v -1.5 22 2
v 1.5 21 2
v 1.5 22 2
v 3.5 20 2
v 3.5 22 2
v 4.5 20 2
v 4.5 22 2
v -9.5 15 1
v -9.5 17 1
v -5.5 15 1
v -5.5 17 1
v -3.5 15 1
v -3.5 17 1
v -2.5 2 1
v -2.5 3 1
v -2.5 5 1
v -2.5 9 1
v -2.5 10 1
v -2.5 14 1
v -2.5 15 1
v -2.5 21 1
v -2.5 22 1
v -1.5 9 1
v -1.5 10 1
v -1.5 13 1
v -1.5 14 1
v -1.5 17 1
v -1.5 20 1
v -1.5 21 1
v -1.5 22 1
v -1.5 23 1
v -0.5 2 1
v -0.5 3 1
v -0.5 5 1
v -0.5 7 1
v -0.5 12 1
v -0.5 13 1
v 0.5 2 1
v 0.5 3 1
v 0.5 5 1
v 0.5 7 1
v 0.5 12 1
v 0.5 13 1
v 1.5 9 1
v 1.5 10 1
v 1.5 13 1
v 1.5 14 1
v 1.5 17 1
v 1.5 20 1
v 1.5 21 1
v 1.5 22 1
v 1.5 23 1
v 2.5 2 1
v 2.5 3 1
v 2.5 5 1
v 2.5 9 1
v 2.5 10 1
v 2.5 14 1
v 2.5 15 1
v 2.5 21 1
v 2.5 22 1
v 3.5 15 1
v 3.5 17 1
v 5.5 15 1
v 5.5 17 1
v 9.5 15 1
v 9.5 17 1
v -3.5 21 -2
v -3.5 22 -2
v -2.5 21 -2
v -2.5 22 -2
v 2.5 21 -2
v 2.5 22 -2
v 3.5 21 -2
v 3.5 22 -2
v -2.5 21 -3
v -2.5 22 -3
v 2.5 21 -3
v 2.5 22 -3
v -2.5 21 3
v -2.5 22 3
v 2.5 21 3
v 2.5 22 3
v -3.5 21 2
v -3.5 22 2
v -2.5 21 2
v -2.5 22 2
v 2.5 21 2
v 2.5 22 2
v 3.5 21 2
v 3.5 22 2
v -9.5 15 -1
v -9.5 17 -1
v -5.5 15 -1
v -5.5 17 -1
v -3.5 15 -1
v -3.5 17 -1
v -2.5 0 -1
v -2.5 3 -1
v -2.5 5 -1
v -2.5 9 -1
v -2.5 10 -1
v -2.5 15 -1
v -2.5 21 -1
v -2.5 22 -1
v -1.5 9 -1
v -1.5 10 -1
v -1.5 14 -1
v -1.5 15 -1
v -1.5 16 -1
v -1.5 17 -1
v -1.5 20 -1
v -1.5 21 -1
v -1.5 22 -1
v -1.5 23 -1
v -0.5 0 -1
v -0.5 3 -1
v -0.5 5 -1
v -0.5 7 -1
v -0.5 13 -1
v -0.5 14 -1
v 0.5 0 -1
v 0.5 3 -1
v 0.5 5 -1
v 0.5 7 -1
v 0.5 13 -1
v 0.5 14 -1
v 1.5 9 -1
v 1.5 10 -1
v 1.5 14 -1
v 1.5 15 -1
v 1.5 16 -1
v 1.5 17 -1
v 1.5 20 -1
v 1.5 21 -1
v 1.5 22 -1
v 1.5 23 -1
v 2.5 0 -1
v 2.5 3 -1
v 2.5 5 -1
v 2.5 9 -1
v 2.5 10 -1
v 2.5 15 -1
v 2.5 21 -1
v 2.5 22 -1
v 3.5 15 -1
v 3.5 17 -1
v 5.5 15 -1
v 5.5 17 -1
v 9.5 15 -1
v 9.5 17 -1
v -4.5 20 -2
v -4.5 22 -2
v -3.5 20 -2
v -3.5 22 -2
v -1.5 21 -2
v -1.5 22 -2
v 1.5 21 -2
v 1.5 22 -2
v 3.5 20 -2
v 3.5 22 -2
v 4.5 20 -2
v 4.5 22 -2
v -3.5 20 -3
v -3.5 22 -3
v -2.5 20 -3
v -2.5 22 -3
v 2.5 20 -3
v 2.5 22 -3
v 3.5 20 -3
v 3.5 22 -3
v -2.5 20 -4
v -2.5 22 -4
v 2.5 20 -4
v 2.5 22 -4
v -2.5 0 3
v -0.5 0 3
v 0.5 0 3
v 2.5 0 3
v -2.5 0 -1
v -0.5 0 -1
v 0.5 0 -1
v 2.5 0 -1
v -0.5 7 1
v 0.5 7 1
v -0.5 7 -1
v 0.5 7 -1
v -2.5 10 1
v -1.5 10 1
v 1.5 10 1
v 2.5 10 1
v -2.5 10 -1
v -1.5 10 -1
v 1.5 10 -1
v 2.5 10 -1
v -9.5 15 1
v -5.5 15 1
v -3.5 15 1
v -2.5 15 1
v 2.5 15 1
v 3.5 15 1
v 5.5 15 1
v 9.5 15 1
v -2.5 15 -0
v 2.5 15 -0
v -9.5 15 -1
v -5.5 15 -1
v -3.5 15 -1
v -2.5 15 -1
v 2.5 15 -1
v 3.5 15 -1
v 5.5 15 -1
v 9.5 15 -1
v -2.5 20 4
v 2.5 20 4
v -3.5 20 3
v -2.5 20 3
v 2.5 20 3
v 3.5 20 3
v -4.5 20 2
v -3.5 20 2
v 3.5 20 2
v 4.5 20 2
v -1.5 20 1
v 1.5 20 1
v -1.5 20 -1
v 1.5 20 -1
v -4.5 20 -2
v -3.5 20 -2
v 3.5 20 -2
v 4.5 20 -2
v -3.5 20 -3
v -2.5 20 -3
v 2.5 20 -3
v 3.5 20 -3
v -2.5 20 -4
v 2.5 20 -4
v -2.5 2 3
v -0.5 2 3
v 0.5 2 3
v 2.5 2 3
v -2.5 2 1
v -0.5 2 1
v 0.5 2 1
v 2.5 2 1
v -2.5 9 1
v -1.5 9 1
v 1.5 9 1
v 2.5 9 1
v -2.5 9 -1
v -1.5 9 -1
v 1.5 9 -1
v 2.5 9 -1
v -9.5 17 1
v -5.5 17 1
v -3.5 17 1
v -1.5 17 1
v 1.5 17 1
v 3.5 17 1
v 5.5 17 1
v 9.5 17 1
v -9.5 17 -1
v -5.5 17 -1
v -3.5 17 -1
v -1.5 17 -1
v 1.5 17 -1
v 3.5 17 -1
v 5.5 17 -1
v 9.5 17 -1
v -2.5 21 3
v 2.5 21 3
v -3.5 21 2
v -2.5 21 2
v -1.5 21 2
v 1.5 21 2
v 2.5 21 2
v 3.5 21 2
v -2.5 21 1
v -1.5 21 1
v 1.5 21 1
v 2.5 21 1
v -2.5 21 -1
v -1.5 21 -1
v 1.5 21 -1
v 2.5 21 -1
v -3.5 21 -2
v -2.5 21 -2
v -1.5 21 -2
v 1.5 21 -2
v 2.5 21 -2
v 3.5 21 -2
v -2.5 21 -3
v 2.5 21 -3
v -2.5 22 4
v 2.5 22 4
v -3.5 22 3
v -2.5 22 3
v 2.5 22 3
v 3.5 22 3
v -4.5 22 2
v -3.5 22 2
v -2.5 22 2
v -1.5 22 2
v 1.5 22 2
v 2.5 22 2
v 3.5 22 2
v 4.5 22 2
v -2.5 22 1
v -1.5 22 1
v 1.5 22 1
v 2.5 22 1
v -2.5 22 -1
v -1.5 22 -1
v 1.5 22 -1
v 2.5 22 -1
v -4.5 22 -2
v -3.5 22 -2
v -2.5 22 -2
v -1.5 22 -2
v 1.5 22 -2
v 2.5 22 -2
v 3.5 22 -2
v 4.5 22 -2
v -3.5 22 -3
v -2.5 22 -3
v 2.5 22 -3
v 3.5 22 -3
v -2.5 22 -4
v 2.5 22 -4
v -1.5 23 1
v 1.5 23 1
v -1.5 23 -1
v 1.5 23 -1

# faces
f 3/3/1 2/3/1 1/3/1
f 4/3/1 2/3/1 3/3/1
f 7/1/1 6/1/1 5/1/1
f 8/1/1 6/1/1 7/1/1
f 13/1/1 10/1/1 9/1/1
f 14/1/1 10/1/1 13/1/1
f 15/1/1 12/1/1 11/1/1
f 16/1/1 12/1/1 15/1/1
f 19/1/1 18/1/1 17/1/1
f 20/1/1 18/1/1 19/1/1
f 21/1/1 18/1/1 20/1/1
f 22/1/1 18/1/1 21/1/1
f 23/3/1 22/3/1 21/3/1
f 24/3/1 22/3/1 23/3/1
f 25/6/1 24/6/1 23/6/1
f 26/6/1 24/6/1 25/6/1
f 29/5/1 28/5/1 27/5/1
f 30/5/1 28/5/1 29/5/1
f 31/2/1 30/2/1 29/2/1
f 32/5/1 28/5/1 30/5/1
f 32/2/1 30/2/1 31/2/1
f 33/5/1 28/5/1 32/5/1
f 40/1/1 35/1/1 34/1/1
f 41/1/1 35/1/1 40/1/1
f 42/4/1 39/4/1 38/4/1
f 43/4/1 39/4/1 42/4/1
f 44/1/1 37/1/1 36/1/1
f 45/1/1 37/1/1 44/1/1
f 48/7/1 47/7/1 46/7/1
f 49/7/1 47/7/1 48/7/1
f 52/3/1 51/3/1 50/3/1
f 53/3/1 51/3/1 52/3/1
f 58/4/1 55/4/1 54/4/1
f 59/4/1 55/4/1 58/4/1
f 60/4/1 57/4/1 56/4/1
f 61/4/1 57/4/1 60/4/1
f 62/1/1 60/1/1 59/1/1
f 63/1/1 60/1/1 62/1/1
f 66/1/1 65/1/1 64/1/1
f 67/1/1 65/1/1 66/1/1
f 68/1/1 65/1/1 67/1/1
f 69/1/1 65/1/1 68/1/1
f 70/3/1 69/3/1 68/3/1
f 71/3/1 69/3/1 70/3/1
f 72/6/1 71/6/1 70/6/1
f 73/6/1 71/6/1 72/6/1
f 78/1/1 75/1/1 74/1/1
f 79/1/1 75/1/1 78/1/1
f 80/1/1 77/1/1 76/1/1
f 81/1/1 77/1/1 80/1/1
f 84/1/1 83/1/1 82/1/1
f 85/1/1 83/1/1 84/1/1
f 86/1/2 87/1/2 88/1/2
f 88/1/2 87/1/2 89/1/2
f 90/1/2 91/1/2 94/1/2
f 94/1/2 91/1/2 95/1/2
f 92/1/2 93/1/2 96/1/2
f 96/1/2 93/1/2 97/1/2
f 98/1/2 99/1/2 100/1/2
f 100/1/2 99/1/2 101/1/2
f 101/1/2 99/1/2 102/1/2
f 102/1/2 99/1/2 103/1/2
f 102/3/2 103/3/2 104/3/2
f 104/3/2 103/3/2 105/3/2
f 104/6/2 105/6/2 106/6/2
f 106/6/2 105/6/2 107/6/2
f 108/7/2 109/7/2 110/7/2
f 110/7/2 109/7/2 111/7/2
f 112/3/2 113/3/2 114/3/2
f 114/3/2 113/3/2 115/3/2
f 116/4/2 117/4/2 120/4/2
f 120/4/2 117/4/2 121/4/2
f 118/4/2 119/4/2 122/4/2
f 122/4/2 119/4/2 123/4/2
f 121/1/2 122/1/2 124/1/2
f 124/1/2 122/1/2 125/1/2
f 126/1/2 127/1/2 128/1/2
f 128/1/2 127/1/2 129/1/2
f 129/1/2 127/1/2 130/1/2
f 130/1/2 127/1/2 131/1/2
f 130/3/2 131/3/2 132/3/2
f 132/3/2 131/3/2 133/3/2
f 132/6/2 133/6/2 134/6/2
f 134/6/2 133/6/2 135/6/2
f 136/5/2 137/5/2 138/5/2
f 138/5/2 137/5/2 139/5/2
f 138/2/2 139/2/2 140/2/2
f 139/5/2 137/5/2 141/5/2
f 140/2/2 139/2/2 141/2/2
f 141/5/2 137/5/2 142/5/2
f 143/1/2 144/1/2 149/1/2
f 149/1/2 144/1/2 150/1/2
f 147/4/2 148/4/2 151/4/2
f 151/4/2 148/4/2 152/4/2
f 145/1/2 146/1/2 153/1/2
f 153/1/2 146/1/2 154/1/2
f 155/1/2 156/1/2 159/1/2
f 159/1/2 156/1/2 160/1/2
f 157/1/2 158/1/2 161/1/2
f 161/1/2 158/1/2 162/1/2
f 163/1/2 164/1/2 165/1/2
f 165/1/2 164/1/2 166/1/2
f 167/3/2 168/3/2 169/3/2
f 169/3/2 168/3/2 170/3/2
f 173/1/3 172/1/3 171/1/3
f 174/1/3 172/1/3 173/1/3
f 179/1/3 176/1/3 175/1/3
f 180/1/3 176/1/3 179/1/3
f 181/1/3 178/1/3 177/1/3
f 182/1/3 178/1/3 181/1/3
f 185/1/3 184/1/3 183/1/3
f 186/1/3 184/1/3 185/1/3
f 189/1/3 188/1/3 187/1/3
f 190/1/3 188/1/3 189/1/3
f 193/1/3 192/1/3 191/1/3
f 194/1/3 192/1/3 193/1/3
f 197/4/3 196/4/3 195/4/3
f 198/4/3 196/4/3 197/4/3
f 201/1/3 200/1/3 199/1/3
f 202/1/3 200/1/3 201/1/3
f 205/3/3 204/3/3 203/3/3
f 206/3/3 204/3/3 205/3/3
f 207/5/3 206/5/3 205/5/3
f 208/5/3 206/5/3 207/5/3
f 215/2/3 208/2/3 207/2/3
f 218/6/3 212/6/3 211/6/3
f 219/5/3 214/5/3 213/5/3
f 220/5/3 214/5/3 219/5/3
f 221/2/3 215/2/3 214/2/3
f 221/5/3 214/5/3 220/5/3
f 222/2/3 208/2/3 215/2/3
f 222/2/3 215/2/3 221/2/3
f 224/4/3 217/4/3 216/4/3
f 225/4/3 217/4/3 224/4/3
f 227/1/3 210/1/3 209/1/3
f 228/3/3 211/3/3 210/3/3
f 228/1/3 210/1/3 227/1/3
f 229/6/3 218/6/3 211/6/3
f 229/3/3 211/3/3 228/3/3
f 230/6/3 218/6/3 229/6/3
f 231/5/3 220/5/3 219/5/3
f 232/2/3 221/2/3 220/2/3
f 232/5/3 220/5/3 231/5/3
f 232/2/3 222/2/3 221/2/3
f 236/6/3 218/6/3 230/6/3
f 237/5/3 231/5/3 219/5/3
f 237/2/3 232/2/3 231/2/3
f 238/2/3 222/2/3 232/2/3
f 238/2/3 232/2/3 237/2/3
f 239/6/3 236/6/3 235/6/3
f 239/7/3 219/7/3 218/7/3
f 239/6/3 218/6/3 236/6/3
f 240/5/3 237/5/3 219/5/3
f 240/7/3 219/7/3 239/7/3
f 240/5/3 238/5/3 237/5/3
f 241/2/3 222/2/3 238/2/3
f 241/5/3 238/5/3 240/5/3
f 242/2/3 222/2/3 241/2/3
f 243/3/3 223/3/3 222/3/3
f 243/2/3 222/2/3 242/2/3
f 244/3/3 223/3/3 243/3/3
f 246/1/3 226/1/3 225/1/3
f 247/1/3 226/1/3 246/1/3
f 248/1/3 234/1/3 233/1/3
f 249/3/3 235/3/3 234/3/3
f 249/1/3 234/1/3 248/1/3
f 250/6/3 239/6/3 235/6/3
f 250/3/3 235/3/3 249/3/3
f 251/6/3 239/6/3 250/6/3
f 252/5/3 242/5/3 241/5/3
f 252/5/3 241/5/3 240/5/3
f 253/2/3 243/2/3 242/2/3
f 253/5/3 242/5/3 252/5/3
f 254/2/3 243/2/3 253/2/3
f 255/4/3 246/4/3 245/4/3
f 256/4/3 246/4/3 255/4/3
f 257/2/3 243/2/3 254/2/3
f 258/2/3 243/2/3 257/2/3
f 259/5/3 258/5/3 257/5/3
f 260/5/3 258/5/3 259/5/3
f 261/3/3 260/3/3 259/3/3
f 262/3/3 260/3/3 261/3/3
f 265/1/3 264/1/3 263/1/3
f 266/1/3 264/1/3 265/1/3
f 269/1/3 268/1/3 267/1/3
f 270/1/3 268/1/3 269/1/3
f 273/1/3 272/1/3 271/1/3
f 274/1/3 272/1/3 273/1/3
f 275/1/4 276/1/4 277/1/4
f 277/1/4 276/1/4 278/1/4
f 279/1/4 280/1/4 281/1/4
f 281/1/4 280/1/4 282/1/4
f 283/1/4 284/1/4 285/1/4
f 285/1/4 284/1/4 286/1/4
f 287/3/4 288/3/4 289/3/4
f 289/3/4 288/3/4 290/3/4
f 289/5/4 290/5/4 291/5/4
f 291/5/4 290/5/4 292/5/4
f 291/2/4 292/2/4 298/2/4
f 295/6/4 296/6/4 301/6/4
f 297/5/4 298/5/4 302/5/4
f 302/5/4 298/5/4 303/5/4
f 298/2/4 292/2/4 304/2/4
f 303/5/4 298/5/4 304/5/4
f 304/2/4 292/2/4 305/2/4
f 305/2/4 292/2/4 306/2/4
f 299/4/4 300/4/4 308/4/4
f 308/4/4 300/4/4 309/4/4
f 293/1/4 294/1/4 311/1/4
f 294/3/4 295/3/4 312/3/4
f 311/1/4 294/1/4 312/1/4
f 295/6/4 301/6/4 313/6/4
f 312/3/4 295/3/4 313/3/4
f 313/6/4 301/6/4 314/6/4
f 302/5/4 303/5/4 315/5/4
f 303/2/4 304/2/4 316/2/4
f 315/5/4 303/5/4 316/5/4
f 304/2/4 305/2/4 316/2/4
f 314/6/4 301/6/4 320/6/4
f 302/5/4 315/5/4 321/5/4
f 315/2/4 316/2/4 321/2/4
f 316/2/4 305/2/4 322/2/4
f 321/2/4 316/2/4 322/2/4
f 301/7/4 302/7/4 323/7/4
f 319/6/4 320/6/4 323/6/4
f 320/6/4 301/6/4 323/6/4
f 302/5/4 321/5/4 324/5/4
f 323/7/4 302/7/4 324/7/4
f 321/5/4 322/5/4 324/5/4
f 322/2/4 305/2/4 325/2/4
f 324/5/4 322/5/4 325/5/4
f 325/2/4 305/2/4 326/2/4
f 305/5/4 306/5/4 327/5/4
f 326/2/4 305/2/4 327/2/4
f 306/3/4 307/3/4 328/3/4
f 327/5/4 306/5/4 328/5/4
f 328/3/4 307/3/4 329/3/4
f 309/1/4 310/1/4 331/1/4
f 331/1/4 310/1/4 332/1/4
f 317/1/4 318/1/4 333/1/4
f 318/3/4 319/3/4 334/3/4
f 333/1/4 318/1/4 334/1/4
f 319/6/4 323/6/4 335/6/4
f 334/3/4 319/3/4 335/3/4
f 335/6/4 323/6/4 336/6/4
f 325/5/4 326/5/4 337/5/4
f 324/5/4 325/5/4 337/5/4
f 326/2/4 327/2/4 338/2/4
f 337/5/4 326/5/4 338/5/4
f 327/2/4 328/2/4 338/2/4
f 330/4/4 331/4/4 339/4/4
f 339/4/4 331/4/4 340/4/4
f 338/2/4 328/2/4 341/2/4
f 341/2/4 328/2/4 342/2/4
f 341/5/4 342/5/4 343/5/4
f 343/5/4 342/5/4 344/5/4
f 343/3/4 344/3/4 345/3/4
f 345/3/4 344/3/4 346/3/4
f 347/1/4 348/1/4 349/1/4
f 349/1/4 348/1/4 350/1/4
f 351/4/4 352/4/4 353/4/4
f 353/4/4 352/4/4 354/4/4
f 355/1/4 356/1/4 357/1/4
f 357/1/4 356/1/4 358/1/4
f 359/1/4 360/1/4 361/1/4
f 361/1/4 360/1/4 362/1/4
f 363/1/4 364/1/4 365/1/4
f 365/1/4 364/1/4 366/1/4
f 367/1/4 368/1/4 369/1/4
f 369/1/4 368/1/4 370/1/4
f 375/1/5 372/1/5 371/1/5
f 376/1/5 372/1/5 375/1/5
f 377/1/5 374/1/5 373/1/5
f 378/1/5 374/1/5 377/1/5
f 381/6/5 380/6/5 379/6/5
f 382/6/5 380/6/5 381/6/5
f 387/5/5 384/5/5 383/5/5
f 388/5/5 384/5/5 387/5/5
f 389/5/5 386/5/5 385/5/5
f 390/5/5 386/5/5 389/5/5
f 399/2/5 394/2/5 393/2/5
f 400/2/5 396/2/5 395/2/5
f 401/3/5 392/3/5 391/3/5
f 402/5/5 393/5/5 392/5/5
f 402/3/5 392/3/5 401/3/5
f 403/2/5 399/2/5 393/2/5
f 403/5/5 393/5/5 402/5/5
f 404/2/5 399/2/5 403/2/5
f 405/2/5 396/2/5 400/2/5
f 406/5/5 397/5/5 396/5/5
f 406/2/5 396/2/5 405/2/5
f 407/3/5 398/3/5 397/3/5
f 407/5/5 397/5/5 406/5/5
f 408/3/5 398/3/5 407/3/5
f 412/1/5 410/1/5 409/1/5
f 413/1/5 410/1/5 412/1/5
f 416/1/5 412/1/5 411/1/5
f 416/1/5 414/1/5 413/1/5
f 416/1/5 413/1/5 412/1/5
f 417/1/5 414/1/5 416/1/5
f 419/1/5 416/1/5 415/1/5
f 419/1/5 418/1/5 417/1/5
f 419/1/5 417/1/5 416/1/5
f 420/1/5 418/1/5 419/1/5
f 421/1/5 419/1/5 415/1/5
f 422/1/5 418/1/5 420/1/5
f 423/1/5 421/1/5 415/1/5
f 423/1/5 422/1/5 421/1/5
f 424/1/5 422/1/5 423/1/5
f 425/1/5 418/1/5 422/1/5
f 425/1/5 422/1/5 424/1/5
f 426/1/5 418/1/5 425/1/5
f 427/1/5 425/1/5 424/1/5
f 428/1/5 425/1/5 427/1/5
f 429/1/5 425/1/5 428/1/5
f 430/1/5 425/1/5 429/1/5
f 431/1/5 429/1/5 428/1/5
f 432/1/5 429/1/5 431/1/5
f 433/1/6 434/1/6 437/1/6
f 437/1/6 434/1/6 438/1/6
f 435/1/6 436/1/6 439/1/6
f 439/1/6 436/1/6 440/1/6
f 441/6/6 442/6/6 445/6/6
f 445/6/6 442/6/6 446/6/6
f 443/6/6 444/6/6 447/6/6
f 447/6/6 444/6/6 448/6/6
f 449/3/6 450/3/6 457/3/6
f 450/5/6 451/5/6 458/5/6
f 457/3/6 450/3/6 458/3/6
f 451/2/6 452/2/6 459/2/6
f 458/5/6 451/5/6 459/5/6
f 459/2/6 452/2/6 460/2/6
f 453/2/6 454/2/6 461/2/6
f 454/5/6 455/5/6 462/5/6
f 461/2/6 454/2/6 462/2/6
f 455/3/6 456/3/6 463/3/6
f 462/5/6 455/5/6 463/5/6
f 463/3/6 456/3/6 464/3/6
f 465/1/6 466/1/6 468/1/6
f 468/1/6 466/1/6 469/1/6
f 469/1/6 466/1/6 470/1/6
f 470/1/6 466/1/6 471/1/6
f 467/1/6 468/1/6 473/1/6
f 468/1/6 469/1/6 473/1/6
f 473/1/6 469/1/6 474/1/6
f 471/1/6 472/1/6 475/1/6
f 470/1/6 471/1/6 475/1/6
f 475/1/6 472/1/6 476/1/6
f 467/1/6 473/1/6 477/1/6
f 476/1/6 472/1/6 480/1/6
f 477/1/6 478/1/6 481/1/6
f 467/1/6 477/1/6 481/1/6
f 481/1/6 478/1/6 482/1/6
f 482/1/6 478/1/6 483/1/6
f 479/1/6 480/1/6 484/1/6
f 480/1/6 472/1/6 485/1/6
f 484/1/6 480/1/6 485/1/6
f 485/1/6 472/1/6 486/1/6
f 482/1/6 483/1/6 487/1/6
f 483/1/6 484/1/6 487/1/6
f 484/1/6 485/1/6 487/1/6
f 487/1/6 485/1/6 488/1/6
f 489/1/6 490/1/6 492/1/6
f 492/1/6 490/1/6 493/1/6
f 491/1/6 492/1/6 496/1/6
f 496/1/6 492/1/6 497/1/6
f 493/1/6 494/1/6 500/1/6
f 500/1/6 494/1/6 501/1/6
f 498/4/6 499/4/6 504/4/6
f 504/4/6 499/4/6 505/4/6
f 503/4/6 504/4/6 507/4/6
f 507/4/6 504/4/6 508/4/6
f 505/4/6 506/4/6 509/4/6
f 509/4/6 506/4/6 510/4/6
f 495/1/6 496/1/6 511/1/6
f 511/1/6 496/1/6 512/1/6
f 508/4/6 509/4/6 514/4/6
f 514/4/6 509/4/6 515/4/6
f 501/1/6 502/1/6 517/1/6
f 517/1/6 502/1/6 518/1/6
f 512/1/6 513/1/6 519/1/6
f 519/1/6 513/1/6 520/1/6
f 516/1/6 517/1/6 521/1/6
f 521/1/6 517/1/6 522/1/6
f 520/1/6 521/1/6 523/1/6
f 523/1/6 521/1/6 524/1/6
f 525/1/6 526/1/6 527/1/6
f 527/1/6 526/1/6 528/1/6
